<?xml version="1.0" encoding="UTF-8"?>
<svg xmlns="http://www.w3.org/2000/svg" xmlns:xlink="http://www.w3.org/1999/xlink" width="50px" height="39px" viewBox="0 0 49 39" version="1.1">
<g id="surface1">
<path style=" stroke:none;fill-rule:nonzero;fill:rgb(0%,0%,0%);fill-opacity:1;" d="M 2.035156 14.417969 C 2.035156 15.222656 2.050781 15.566406 2.097656 15.550781 C 2.128906 15.539062 2.226562 15.347656 2.3125 15.125 C 2.492188 14.648438 2.730469 14.28125 3.046875 13.992188 C 3.546875 13.535156 3.964844 13.4375 5.496094 13.4375 C 6.109375 13.4375 6.609375 13.449219 6.609375 13.460938 C 6.609375 13.472656 5.429688 15.484375 3.984375 17.9375 C 2.535156 20.390625 1.339844 22.433594 1.320312 22.480469 C 1.292969 22.554688 1.71875 22.566406 4.824219 22.566406 L 8.363281 22.566406 L 8.363281 21.125 C 8.363281 19.582031 8.324219 19.398438 8.136719 20.085938 C 8.019531 20.515625 7.757812 21.0625 7.488281 21.433594 C 7.253906 21.75 6.695312 22.1875 6.394531 22.285156 C 6.261719 22.332031 5.589844 22.367188 4.496094 22.375 C 2.921875 22.398438 2.8125 22.394531 2.847656 22.300781 C 2.863281 22.25 4.066406 20.210938 5.507812 17.773438 C 6.957031 15.332031 8.136719 13.320312 8.136719 13.296875 C 8.136719 13.28125 6.761719 13.265625 5.085938 13.265625 L 2.035156 13.265625 Z M 2.035156 14.417969 "/>
<path style=" stroke:none;fill-rule:nonzero;fill:rgb(0%,0%,0%);fill-opacity:1;" d="M 11.222656 18.765625 C 10.570312 20.523438 9.988281 22.074219 9.9375 22.203125 L 9.835938 22.453125 L 9.4375 22.453125 C 9.210938 22.453125 9.039062 22.472656 9.039062 22.507812 C 9.039062 22.542969 9.417969 22.566406 10.058594 22.566406 C 10.695312 22.566406 11.074219 22.542969 11.074219 22.507812 C 11.074219 22.472656 10.867188 22.453125 10.566406 22.453125 C 10.199219 22.453125 10.058594 22.433594 10.058594 22.375 C 10.058594 22.34375 10.265625 21.738281 10.527344 21.042969 L 10.996094 19.78125 L 12.089844 19.765625 L 13.195312 19.753906 L 13.675781 21.050781 C 13.941406 21.769531 14.164062 22.371094 14.171875 22.398438 C 14.183594 22.429688 13.949219 22.453125 13.652344 22.453125 C 13.328125 22.453125 13.109375 22.472656 13.109375 22.507812 C 13.109375 22.542969 13.632812 22.566406 14.578125 22.566406 C 15.523438 22.566406 16.046875 22.542969 16.046875 22.507812 C 16.046875 22.472656 15.871094 22.453125 15.632812 22.453125 L 15.214844 22.453125 L 15.132812 22.234375 C 15.085938 22.117188 14.511719 20.566406 13.84375 18.789062 C 12.78125 15.941406 12.621094 15.5625 12.519531 15.5625 C 12.414062 15.5625 12.261719 15.941406 11.222656 18.765625 Z M 13.109375 19.59375 C 13.109375 19.621094 12.652344 19.636719 12.089844 19.636719 C 11.53125 19.636719 11.074219 19.625 11.074219 19.613281 C 11.074219 19.601562 11.632812 18.09375 12.035156 17.023438 C 12.097656 16.859375 12.125 16.917969 12.605469 18.203125 C 12.882812 18.941406 13.109375 19.570312 13.109375 19.59375 Z M 13.109375 19.59375 "/>
<path style=" stroke:none;fill-rule:nonzero;fill:rgb(0%,0%,0%);fill-opacity:1;" d="M 19.183594 15.625 C 18.664062 15.734375 18.007812 16.101562 17.589844 16.527344 C 16.890625 17.238281 16.5625 17.996094 16.515625 19.007812 C 16.480469 19.753906 16.578125 20.21875 16.898438 20.84375 C 17.476562 21.96875 18.449219 22.648438 19.613281 22.722656 C 20.035156 22.75 20.167969 22.734375 20.726562 22.570312 C 21.425781 22.375 21.757812 22.347656 21.867188 22.480469 C 21.90625 22.527344 21.972656 22.566406 22.015625 22.566406 C 22.074219 22.566406 22.09375 22.371094 22.09375 21.53125 C 22.09375 20.957031 22.070312 20.5 22.042969 20.5 C 22.015625 20.5 21.933594 20.6875 21.867188 20.914062 C 21.625 21.726562 21.335938 22.113281 20.78125 22.371094 C 20.460938 22.519531 20.363281 22.539062 19.832031 22.539062 C 18.832031 22.539062 18.371094 22.277344 17.996094 21.515625 C 17.6875 20.867188 17.605469 20.414062 17.605469 19.148438 C 17.601562 18.28125 17.625 17.96875 17.707031 17.597656 C 17.917969 16.6875 18.269531 16.164062 18.867188 15.867188 C 19.148438 15.722656 19.246094 15.703125 19.777344 15.703125 C 20.320312 15.703125 20.398438 15.722656 20.679688 15.867188 C 21.21875 16.148438 21.492188 16.496094 21.71875 17.175781 C 21.800781 17.410156 21.890625 17.605469 21.917969 17.617188 C 21.964844 17.632812 21.980469 17.328125 21.980469 16.6875 C 21.980469 15.679688 21.96875 15.636719 21.730469 15.820312 C 21.566406 15.945312 21.25 15.921875 20.816406 15.757812 C 20.375 15.582031 19.65625 15.527344 19.183594 15.625 Z M 19.183594 15.625 "/>
<path style=" stroke:none;fill-rule:nonzero;fill:rgb(0%,0%,0%);fill-opacity:1;" d="M 28.398438 18.765625 C 27.75 20.523438 27.167969 22.074219 27.117188 22.203125 L 27.015625 22.453125 L 26.613281 22.453125 C 26.386719 22.453125 26.21875 22.472656 26.21875 22.507812 C 26.21875 22.542969 26.597656 22.566406 27.234375 22.566406 C 27.875 22.566406 28.25 22.542969 28.25 22.507812 C 28.25 22.472656 28.042969 22.453125 27.742188 22.453125 C 27.375 22.453125 27.234375 22.433594 27.234375 22.375 C 27.234375 22.34375 27.445312 21.738281 27.703125 21.042969 L 28.171875 19.78125 L 29.269531 19.765625 L 30.371094 19.753906 L 30.851562 21.050781 C 31.117188 21.769531 31.34375 22.371094 31.347656 22.398438 C 31.359375 22.429688 31.128906 22.453125 30.828125 22.453125 C 30.507812 22.453125 30.285156 22.472656 30.285156 22.507812 C 30.285156 22.542969 30.8125 22.566406 31.753906 22.566406 C 32.699219 22.566406 33.222656 22.542969 33.222656 22.507812 C 33.222656 22.472656 33.050781 22.453125 32.8125 22.453125 L 32.394531 22.453125 L 32.308594 22.234375 C 32.261719 22.117188 31.6875 20.566406 31.019531 18.789062 C 29.957031 15.941406 29.800781 15.5625 29.699219 15.5625 C 29.589844 15.5625 29.4375 15.941406 28.398438 18.765625 Z M 30.285156 19.59375 C 30.285156 19.621094 29.828125 19.636719 29.269531 19.636719 C 28.710938 19.636719 28.25 19.625 28.25 19.613281 C 28.25 19.601562 28.8125 18.09375 29.210938 17.023438 C 29.273438 16.859375 29.304688 16.917969 29.78125 18.203125 C 30.058594 18.941406 30.285156 19.570312 30.285156 19.59375 Z M 30.285156 19.59375 "/>
<path style=" stroke:none;fill-rule:nonzero;fill:rgb(0%,0%,0%);fill-opacity:1;" d="M 36.179688 15.648438 C 35.015625 15.980469 34.039062 17.007812 33.734375 18.238281 C 33.527344 19.035156 33.589844 19.894531 33.90625 20.601562 C 34.269531 21.417969 34.867188 22.074219 35.570312 22.421875 C 36.449219 22.863281 37.367188 22.847656 38.308594 22.367188 C 38.734375 22.148438 39.0625 22.105469 39.246094 22.25 C 39.304688 22.296875 39.371094 22.335938 39.398438 22.335938 C 39.421875 22.335938 39.441406 21.832031 39.441406 21.21875 L 39.441406 20.097656 L 39.808594 20.097656 C 40.015625 20.097656 40.175781 20.074219 40.175781 20.039062 C 40.175781 20.003906 39.652344 19.980469 38.734375 19.980469 C 37.8125 19.980469 37.292969 20.003906 37.292969 20.039062 C 37.292969 20.074219 37.542969 20.097656 37.917969 20.097656 L 38.550781 20.097656 L 38.523438 20.742188 C 38.5 21.292969 38.480469 21.429688 38.355469 21.675781 C 38.042969 22.285156 37.59375 22.539062 36.8125 22.539062 C 36.214844 22.539062 35.976562 22.464844 35.601562 22.164062 C 35.265625 21.894531 34.96875 21.320312 34.824219 20.671875 C 34.691406 20.070312 34.691406 18.230469 34.824219 17.632812 C 35.015625 16.75 35.410156 16.152344 35.980469 15.867188 C 36.273438 15.722656 36.359375 15.703125 36.898438 15.703125 C 37.398438 15.710938 37.53125 15.726562 37.753906 15.84375 C 38.332031 16.128906 38.726562 16.632812 38.890625 17.289062 C 38.9375 17.457031 39 17.605469 39.039062 17.617188 C 39.082031 17.632812 39.101562 17.375 39.101562 16.6875 C 39.101562 15.679688 39.089844 15.636719 38.851562 15.820312 C 38.683594 15.945312 38.332031 15.921875 37.917969 15.757812 C 37.457031 15.5625 36.644531 15.515625 36.179688 15.648438 Z M 36.179688 15.648438 "/>
<path style=" stroke:none;fill-rule:nonzero;fill:rgb(0%,0%,0%);fill-opacity:1;" d="M 43.695312 15.640625 C 43.105469 15.789062 42.660156 16.066406 42.152344 16.589844 C 41.632812 17.117188 41.34375 17.597656 41.15625 18.230469 C 41.027344 18.691406 41.027344 19.59375 41.15625 20.097656 C 41.421875 21.109375 42.089844 21.957031 42.949219 22.386719 C 43.511719 22.667969 43.949219 22.761719 44.523438 22.722656 C 45.609375 22.640625 46.621094 21.921875 47.175781 20.847656 C 47.484375 20.234375 47.59375 19.78125 47.585938 19.09375 C 47.582031 17.589844 46.675781 16.265625 45.289062 15.734375 C 44.871094 15.574219 44.117188 15.53125 43.695312 15.640625 Z M 45.21875 15.867188 C 45.785156 16.128906 46.164062 16.65625 46.367188 17.46875 C 46.421875 17.703125 46.46875 18.195312 46.484375 18.890625 C 46.53125 20.535156 46.351562 21.367188 45.820312 21.957031 C 45.40625 22.417969 45.101562 22.539062 44.328125 22.539062 C 43.773438 22.539062 43.671875 22.519531 43.390625 22.386719 C 42.839844 22.125 42.503906 21.652344 42.289062 20.871094 C 42.164062 20.417969 42.113281 18.640625 42.203125 17.960938 C 42.367188 16.730469 42.859375 15.996094 43.6875 15.761719 C 44.136719 15.636719 44.824219 15.679688 45.21875 15.867188 Z M 45.21875 15.867188 "/>
<path style=" stroke:none;fill-rule:nonzero;fill:rgb(0%,0%,0%);fill-opacity:1;" d="M 22.828125 15.789062 C 22.828125 15.824219 23.042969 15.847656 23.363281 15.847656 L 23.902344 15.847656 L 23.902344 22.453125 L 23.363281 22.453125 C 23.042969 22.453125 22.828125 22.472656 22.828125 22.507812 C 22.828125 22.542969 23.375 22.566406 24.351562 22.566406 C 25.332031 22.566406 25.878906 22.542969 25.878906 22.507812 C 25.878906 22.472656 25.667969 22.453125 25.371094 22.453125 L 24.863281 22.453125 L 24.863281 15.847656 L 25.371094 15.847656 C 25.667969 15.847656 25.878906 15.824219 25.878906 15.789062 C 25.878906 15.757812 25.332031 15.734375 24.351562 15.734375 C 23.375 15.734375 22.828125 15.757812 22.828125 15.789062 Z M 22.828125 15.789062 "/>
<path style=" stroke:none;fill-rule:nonzero;fill:rgb(0%,0%,0%);fill-opacity:1;" d="M 19.210938 25.148438 L 19.210938 26.296875 L 20.003906 26.296875 C 20.753906 26.296875 20.792969 26.292969 20.792969 26.183594 C 20.792969 26.074219 20.753906 26.070312 20.144531 26.070312 L 19.492188 26.070312 L 19.492188 24 L 19.210938 24 Z M 19.210938 25.148438 "/>
<path style=" stroke:none;fill-rule:nonzero;fill:rgb(0%,0%,0%);fill-opacity:1;" d="M 21.300781 25.300781 C 21.300781 25.953125 21.300781 25.964844 21.464844 26.132812 C 21.667969 26.339844 21.964844 26.355469 22.289062 26.183594 C 22.414062 26.121094 22.523438 26.070312 22.527344 26.070312 C 22.539062 26.070312 22.546875 26.121094 22.546875 26.183594 C 22.546875 26.269531 22.585938 26.296875 22.6875 26.296875 L 22.828125 26.296875 L 22.828125 24.632812 L 22.6875 24.632812 C 22.546875 24.632812 22.546875 24.632812 22.546875 25.203125 C 22.546875 25.769531 22.546875 25.769531 22.371094 25.917969 C 22.148438 26.109375 21.738281 26.132812 21.640625 25.960938 C 21.613281 25.898438 21.585938 25.574219 21.585938 25.242188 L 21.585938 24.632812 L 21.300781 24.632812 Z M 21.300781 25.300781 "/>
<path style=" stroke:none;fill-rule:nonzero;fill:rgb(0%,0%,0%);fill-opacity:1;" d="M 23.28125 24.65625 C 23.28125 24.667969 23.414062 24.851562 23.585938 25.0625 L 23.890625 25.453125 L 23.554688 25.878906 L 23.21875 26.296875 L 23.386719 26.296875 C 23.523438 26.296875 23.601562 26.242188 23.8125 25.984375 L 24.066406 25.667969 L 24.308594 25.984375 C 24.5 26.234375 24.578125 26.296875 24.714844 26.296875 C 24.902344 26.296875 24.90625 26.316406 24.472656 25.757812 L 24.230469 25.4375 L 24.472656 25.140625 C 24.601562 24.972656 24.75 24.789062 24.792969 24.730469 C 24.871094 24.640625 24.867188 24.632812 24.703125 24.632812 C 24.5625 24.632812 24.488281 24.683594 24.3125 24.921875 C 24.195312 25.074219 24.082031 25.203125 24.066406 25.207031 C 24.042969 25.207031 23.929688 25.074219 23.8125 24.921875 C 23.640625 24.695312 23.5625 24.632812 23.4375 24.632812 C 23.351562 24.632812 23.28125 24.644531 23.28125 24.65625 Z M 23.28125 24.65625 "/>
<path style=" stroke:none;fill-rule:nonzero;fill:rgb(0%,0%,0%);fill-opacity:1;" d="M 25.257812 25.300781 C 25.257812 25.953125 25.257812 25.964844 25.421875 26.132812 C 25.625 26.339844 25.917969 26.355469 26.246094 26.183594 C 26.371094 26.121094 26.476562 26.070312 26.484375 26.070312 C 26.496094 26.070312 26.5 26.121094 26.5 26.183594 C 26.5 26.269531 26.539062 26.296875 26.640625 26.296875 L 26.78125 26.296875 L 26.78125 24.632812 L 26.640625 24.632812 C 26.5 24.632812 26.5 24.632812 26.5 25.203125 C 26.5 25.769531 26.5 25.769531 26.324219 25.917969 C 26.105469 26.109375 25.691406 26.132812 25.597656 25.960938 C 25.566406 25.898438 25.539062 25.574219 25.539062 25.242188 L 25.539062 24.632812 L 25.257812 24.632812 Z M 25.257812 25.300781 "/>
<path style=" stroke:none;fill-rule:nonzero;fill:rgb(0%,0%,0%);fill-opacity:1;" d="M 27.347656 25.464844 L 27.347656 26.296875 L 27.628906 26.296875 L 27.628906 25.722656 C 27.628906 25.183594 27.640625 25.132812 27.773438 25.007812 C 27.863281 24.910156 27.96875 24.863281 28.109375 24.863281 C 28.269531 24.863281 28.308594 24.839844 28.308594 24.75 C 28.308594 24.585938 27.925781 24.585938 27.753906 24.75 L 27.628906 24.867188 L 27.628906 24.75 C 27.628906 24.660156 27.589844 24.632812 27.488281 24.632812 L 27.347656 24.632812 Z M 27.347656 25.464844 "/>
<path style=" stroke:none;fill-rule:nonzero;fill:rgb(0%,0%,0%);fill-opacity:1;" d="M 28.730469 25.476562 C 29.03125 26.183594 29.082031 26.34375 29.03125 26.464844 C 28.957031 26.671875 28.816406 26.816406 28.691406 26.816406 C 28.574219 26.816406 28.558594 26.957031 28.675781 27.011719 C 28.800781 27.054688 29.09375 26.929688 29.160156 26.804688 C 29.195312 26.734375 29.410156 26.222656 29.636719 25.660156 L 30.046875 24.632812 L 29.894531 24.632812 C 29.761719 24.632812 29.730469 24.683594 29.496094 25.289062 C 29.359375 25.648438 29.230469 25.9375 29.210938 25.925781 C 29.191406 25.914062 29.066406 25.617188 28.929688 25.265625 C 28.703125 24.671875 28.675781 24.632812 28.527344 24.632812 L 28.375 24.632812 Z M 28.730469 25.476562 "/>
<path style=" stroke:none;fill-rule:nonzero;fill:rgb(0%,0%,0%);fill-opacity:1;" d="M 13.277344 25.378906 C 13.277344 25.488281 13.316406 25.496094 14.605469 25.496094 C 15.894531 25.496094 15.933594 25.488281 15.933594 25.378906 C 15.933594 25.269531 15.894531 25.265625 14.605469 25.265625 C 13.316406 25.265625 13.277344 25.269531 13.277344 25.378906 Z M 13.277344 25.378906 "/>
<path style=" stroke:none;fill-rule:nonzero;fill:rgb(0%,0%,0%);fill-opacity:1;" d="M 33.054688 25.378906 C 33.054688 25.488281 33.09375 25.496094 34.382812 25.496094 C 35.671875 25.496094 35.710938 25.488281 35.710938 25.378906 C 35.710938 25.269531 35.671875 25.265625 34.382812 25.265625 C 33.09375 25.265625 33.054688 25.269531 33.054688 25.378906 Z M 33.054688 25.378906 "/>
</g>
</svg>
