<?xml version="1.0" encoding="UTF-8"?>
<svg xmlns="http://www.w3.org/2000/svg" xmlns:xlink="http://www.w3.org/1999/xlink" width="100px" height="78px" viewBox="0 0 99 78" version="1.1">
<g id="surface1">
<path style=" stroke:none;fill-rule:nonzero;fill:rgb(0%,0%,0%);fill-opacity:1;" d="M 4.109375 28.835938 C 4.109375 30.445312 4.144531 31.132812 4.234375 31.097656 C 4.304688 31.074219 4.496094 30.695312 4.667969 30.25 C 5.035156 29.296875 5.515625 28.5625 6.152344 27.988281 C 7.167969 27.066406 8.015625 26.871094 11.109375 26.871094 C 12.339844 26.871094 13.355469 26.894531 13.355469 26.917969 C 13.355469 26.941406 10.972656 30.972656 8.046875 35.875 C 5.125 40.78125 2.707031 44.867188 2.671875 44.960938 C 2.613281 45.109375 3.46875 45.132812 9.75 45.132812 L 16.894531 45.132812 L 16.894531 42.25 C 16.894531 39.160156 16.816406 38.792969 16.4375 40.171875 C 16.199219 41.03125 15.675781 42.125 15.125 42.871094 C 14.660156 43.5 13.527344 44.375 12.921875 44.570312 C 12.648438 44.660156 11.289062 44.730469 9.085938 44.753906 C 5.902344 44.800781 5.683594 44.789062 5.753906 44.605469 C 5.789062 44.5 8.21875 40.425781 11.128906 35.542969 C 14.054688 30.664062 16.4375 26.644531 16.4375 26.597656 C 16.4375 26.5625 13.664062 26.527344 10.273438 26.527344 L 4.109375 26.527344 Z M 4.109375 28.835938 "/>
<path style=" stroke:none;fill-rule:nonzero;fill:rgb(0%,0%,0%);fill-opacity:1;" d="M 22.671875 37.53125 C 21.359375 41.042969 20.183594 44.144531 20.082031 44.410156 L 19.875 44.902344 L 19.066406 44.902344 C 18.609375 44.902344 18.265625 44.949219 18.265625 45.019531 C 18.265625 45.085938 19.03125 45.132812 20.320312 45.132812 C 21.609375 45.132812 22.375 45.085938 22.375 45.019531 C 22.375 44.949219 21.953125 44.902344 21.347656 44.902344 C 20.605469 44.902344 20.320312 44.867188 20.320312 44.753906 C 20.320312 44.683594 20.742188 43.480469 21.269531 42.089844 L 22.214844 39.5625 L 24.429688 39.527344 L 26.65625 39.503906 L 27.625 42.101562 C 28.164062 43.535156 28.621094 44.742188 28.632812 44.800781 C 28.652344 44.855469 28.1875 44.902344 27.582031 44.902344 C 26.929688 44.902344 26.484375 44.949219 26.484375 45.019531 C 26.484375 45.085938 27.546875 45.132812 29.453125 45.132812 C 31.359375 45.132812 32.421875 45.085938 32.421875 45.019531 C 32.421875 44.949219 32.066406 44.902344 31.589844 44.902344 L 30.742188 44.902344 L 30.570312 44.464844 C 30.480469 44.238281 29.316406 41.136719 27.96875 37.574219 C 25.824219 31.878906 25.503906 31.121094 25.296875 31.121094 C 25.082031 31.121094 24.773438 31.878906 22.671875 37.53125 Z M 26.484375 39.183594 C 26.484375 39.242188 25.558594 39.277344 24.429688 39.277344 C 23.300781 39.277344 22.375 39.253906 22.375 39.230469 C 22.375 39.207031 23.503906 36.1875 24.316406 34.050781 C 24.441406 33.71875 24.5 33.832031 25.46875 36.40625 C 26.027344 37.886719 26.484375 39.136719 26.484375 39.183594 Z M 26.484375 39.183594 "/>
<path style=" stroke:none;fill-rule:nonzero;fill:rgb(0%,0%,0%);fill-opacity:1;" d="M 38.757812 31.25 C 37.707031 31.464844 36.382812 32.203125 35.539062 33.050781 C 34.121094 34.476562 33.460938 35.992188 33.367188 38.011719 C 33.300781 39.503906 33.496094 40.433594 34.144531 41.6875 C 35.308594 43.9375 37.273438 45.292969 39.625 45.441406 C 40.480469 45.5 40.742188 45.464844 41.875 45.144531 C 43.289062 44.753906 43.964844 44.695312 44.179688 44.960938 C 44.261719 45.050781 44.398438 45.132812 44.476562 45.132812 C 44.601562 45.132812 44.636719 44.742188 44.636719 43.066406 C 44.636719 41.917969 44.589844 41 44.535156 41 C 44.476562 41 44.316406 41.378906 44.179688 41.824219 C 43.6875 43.457031 43.105469 44.226562 41.988281 44.742188 C 41.335938 45.039062 41.144531 45.074219 40.070312 45.074219 C 38.050781 45.074219 37.113281 44.558594 36.359375 43.03125 C 35.730469 41.734375 35.574219 40.824219 35.574219 38.300781 C 35.5625 36.566406 35.605469 35.933594 35.777344 35.199219 C 36.199219 33.371094 36.90625 32.328125 38.117188 31.730469 C 38.6875 31.445312 38.882812 31.410156 39.957031 31.410156 C 41.050781 31.410156 41.210938 31.445312 41.78125 31.730469 C 42.867188 32.292969 43.425781 32.992188 43.882812 34.347656 C 44.042969 34.820312 44.226562 35.210938 44.28125 35.234375 C 44.375 35.269531 44.410156 34.660156 44.410156 33.371094 C 44.410156 31.363281 44.386719 31.269531 43.90625 31.640625 C 43.574219 31.890625 42.9375 31.84375 42.058594 31.511719 C 41.167969 31.167969 39.714844 31.054688 38.757812 31.25 Z M 38.757812 31.25 "/>
<path style=" stroke:none;fill-rule:nonzero;fill:rgb(0%,0%,0%);fill-opacity:1;" d="M 57.378906 37.53125 C 56.0625 41.042969 54.886719 44.144531 54.785156 44.410156 L 54.582031 44.902344 L 53.769531 44.902344 C 53.3125 44.902344 52.96875 44.949219 52.96875 45.019531 C 52.96875 45.085938 53.734375 45.132812 55.023438 45.132812 C 56.316406 45.132812 57.082031 45.085938 57.082031 45.019531 C 57.082031 44.949219 56.65625 44.902344 56.054688 44.902344 C 55.3125 44.902344 55.023438 44.867188 55.023438 44.753906 C 55.023438 44.683594 55.449219 43.480469 55.972656 42.089844 L 56.921875 39.5625 L 59.136719 39.527344 L 61.359375 39.503906 L 62.332031 42.101562 C 62.867188 43.535156 63.324219 44.742188 63.335938 44.800781 C 63.359375 44.855469 62.890625 44.902344 62.285156 44.902344 C 61.636719 44.902344 61.191406 44.949219 61.191406 45.019531 C 61.191406 45.085938 62.25 45.132812 64.160156 45.132812 C 66.066406 45.132812 67.125 45.085938 67.125 45.019531 C 67.125 44.949219 66.773438 44.902344 66.292969 44.902344 L 65.449219 44.902344 L 65.277344 44.464844 C 65.1875 44.238281 64.019531 41.136719 62.675781 37.574219 C 60.527344 31.878906 60.207031 31.121094 60.003906 31.121094 C 59.785156 31.121094 59.476562 31.878906 57.378906 37.53125 Z M 61.191406 39.183594 C 61.191406 39.242188 60.265625 39.277344 59.136719 39.277344 C 58.003906 39.277344 57.082031 39.253906 57.082031 39.230469 C 57.082031 39.207031 58.210938 36.1875 59.019531 34.050781 C 59.148438 33.71875 59.203125 33.832031 60.175781 36.40625 C 60.734375 37.886719 61.191406 39.136719 61.191406 39.183594 Z M 61.191406 39.183594 "/>
<path style=" stroke:none;fill-rule:nonzero;fill:rgb(0%,0%,0%);fill-opacity:1;" d="M 73.097656 31.292969 C 70.746094 31.960938 68.769531 34.015625 68.152344 36.472656 C 67.742188 38.070312 67.867188 39.792969 68.507812 41.203125 C 69.238281 42.835938 70.449219 44.144531 71.863281 44.84375 C 73.644531 45.730469 75.496094 45.695312 77.402344 44.730469 C 78.257812 44.292969 78.917969 44.214844 79.296875 44.5 C 79.410156 44.59375 79.546875 44.671875 79.605469 44.671875 C 79.648438 44.671875 79.683594 43.664062 79.683594 42.433594 L 79.683594 40.195312 L 80.425781 40.195312 C 80.847656 40.195312 81.167969 40.148438 81.167969 40.078125 C 81.167969 40.011719 80.117188 39.964844 78.257812 39.964844 C 76.394531 39.964844 75.347656 40.011719 75.347656 40.078125 C 75.347656 40.148438 75.847656 40.195312 76.613281 40.195312 L 77.890625 40.195312 L 77.835938 41.480469 C 77.789062 42.582031 77.742188 42.859375 77.492188 43.351562 C 76.863281 44.570312 75.949219 45.074219 74.375 45.074219 C 73.164062 45.074219 72.6875 44.925781 71.933594 44.328125 C 71.246094 43.789062 70.652344 42.640625 70.355469 41.34375 C 70.09375 40.136719 70.09375 36.460938 70.355469 35.269531 C 70.746094 33.5 71.542969 32.304688 72.699219 31.730469 C 73.292969 31.445312 73.460938 31.410156 74.546875 31.410156 C 75.5625 31.421875 75.824219 31.453125 76.28125 31.683594 C 77.445312 32.257812 78.246094 33.269531 78.578125 34.578125 C 78.667969 34.910156 78.792969 35.210938 78.875 35.234375 C 78.964844 35.269531 79 34.75 79 33.371094 C 79 31.363281 78.976562 31.269531 78.496094 31.640625 C 78.152344 31.890625 77.445312 31.84375 76.613281 31.511719 C 75.675781 31.121094 74.03125 31.03125 73.097656 31.292969 Z M 73.097656 31.292969 "/>
<path style=" stroke:none;fill-rule:nonzero;fill:rgb(0%,0%,0%);fill-opacity:1;" d="M 88.28125 31.28125 C 87.09375 31.582031 86.191406 32.132812 85.164062 33.175781 C 84.113281 34.234375 83.53125 35.199219 83.15625 36.460938 C 82.890625 37.378906 82.890625 39.183594 83.15625 40.195312 C 83.691406 42.214844 85.039062 43.914062 86.773438 44.777344 C 87.914062 45.339844 88.792969 45.523438 89.957031 45.441406 C 92.148438 45.28125 94.195312 43.847656 95.3125 41.699219 C 95.941406 40.46875 96.15625 39.5625 96.144531 38.183594 C 96.132812 35.175781 94.308594 32.535156 91.5 31.464844 C 90.65625 31.144531 89.136719 31.066406 88.28125 31.28125 Z M 91.363281 31.730469 C 92.503906 32.257812 93.269531 33.316406 93.679688 34.933594 C 93.792969 35.40625 93.886719 36.394531 93.917969 37.78125 C 94.011719 41.066406 93.644531 42.730469 92.574219 43.914062 C 91.738281 44.832031 91.121094 45.074219 89.558594 45.074219 C 88.441406 45.074219 88.234375 45.039062 87.664062 44.777344 C 86.554688 44.25 85.871094 43.304688 85.4375 41.746094 C 85.1875 40.835938 85.082031 37.277344 85.265625 35.921875 C 85.597656 33.464844 86.589844 31.996094 88.269531 31.523438 C 89.171875 31.269531 90.5625 31.363281 91.363281 31.730469 Z M 91.363281 31.730469 "/>
<path style=" stroke:none;fill-rule:nonzero;fill:rgb(0%,0%,0%);fill-opacity:1;" d="M 46.121094 31.582031 C 46.121094 31.648438 46.554688 31.695312 47.207031 31.695312 L 48.289062 31.695312 L 48.289062 44.902344 L 47.207031 44.902344 C 46.554688 44.902344 46.121094 44.949219 46.121094 45.019531 C 46.121094 45.085938 47.226562 45.132812 49.203125 45.132812 C 51.179688 45.132812 52.285156 45.085938 52.285156 45.019531 C 52.285156 44.949219 51.863281 44.902344 51.257812 44.902344 L 50.230469 44.902344 L 50.230469 31.695312 L 51.257812 31.695312 C 51.863281 31.695312 52.285156 31.648438 52.285156 31.582031 C 52.285156 31.511719 51.179688 31.464844 49.203125 31.464844 C 47.226562 31.464844 46.121094 31.511719 46.121094 31.582031 Z M 46.121094 31.582031 "/>
<path style=" stroke:none;fill-rule:nonzero;fill:rgb(0%,0%,0%);fill-opacity:1;" d="M 38.816406 50.300781 L 38.816406 52.597656 L 40.414062 52.597656 C 41.929688 52.597656 42.011719 52.585938 42.011719 52.367188 C 42.011719 52.148438 41.929688 52.136719 40.699219 52.136719 L 39.386719 52.136719 L 39.386719 48.003906 L 38.816406 48.003906 Z M 38.816406 50.300781 "/>
<path style=" stroke:none;fill-rule:nonzero;fill:rgb(0%,0%,0%);fill-opacity:1;" d="M 43.039062 50.597656 C 43.039062 51.90625 43.039062 51.929688 43.371094 52.265625 C 43.78125 52.675781 44.375 52.710938 45.035156 52.367188 C 45.289062 52.242188 45.503906 52.136719 45.515625 52.136719 C 45.539062 52.136719 45.550781 52.242188 45.550781 52.367188 C 45.550781 52.539062 45.628906 52.597656 45.835938 52.597656 L 46.121094 52.597656 L 46.121094 49.265625 L 45.835938 49.265625 C 45.550781 49.265625 45.550781 49.265625 45.550781 50.402344 C 45.550781 51.539062 45.550781 51.539062 45.195312 51.839844 C 44.75 52.21875 43.917969 52.265625 43.722656 51.917969 C 43.667969 51.792969 43.609375 51.148438 43.609375 50.484375 L 43.609375 49.265625 L 43.039062 49.265625 Z M 43.039062 50.597656 "/>
<path style=" stroke:none;fill-rule:nonzero;fill:rgb(0%,0%,0%);fill-opacity:1;" d="M 47.035156 49.3125 C 47.035156 49.335938 47.308594 49.703125 47.652344 50.128906 L 48.265625 50.910156 L 47.59375 51.757812 L 46.910156 52.597656 L 47.25 52.597656 C 47.523438 52.597656 47.683594 52.480469 48.105469 51.964844 L 48.621094 51.332031 L 49.113281 51.964844 C 49.5 52.472656 49.660156 52.597656 49.933594 52.597656 C 50.308594 52.597656 50.320312 52.632812 49.441406 51.519531 L 48.953125 50.875 L 49.441406 50.277344 C 49.707031 49.945312 50.003906 49.578125 50.09375 49.460938 C 50.253906 49.277344 50.242188 49.265625 49.910156 49.265625 C 49.625 49.265625 49.476562 49.371094 49.125 49.839844 C 48.882812 50.152344 48.65625 50.402344 48.621094 50.414062 C 48.574219 50.414062 48.347656 50.152344 48.105469 49.839844 C 47.765625 49.394531 47.605469 49.265625 47.355469 49.265625 C 47.183594 49.265625 47.035156 49.289062 47.035156 49.3125 Z M 47.035156 49.3125 "/>
<path style=" stroke:none;fill-rule:nonzero;fill:rgb(0%,0%,0%);fill-opacity:1;" d="M 51.03125 50.597656 C 51.03125 51.90625 51.03125 51.929688 51.359375 52.265625 C 51.773438 52.675781 52.367188 52.710938 53.027344 52.367188 C 53.277344 52.242188 53.496094 52.136719 53.507812 52.136719 C 53.53125 52.136719 53.542969 52.242188 53.542969 52.367188 C 53.542969 52.539062 53.621094 52.597656 53.828125 52.597656 L 54.113281 52.597656 L 54.113281 49.265625 L 53.828125 49.265625 C 53.542969 49.265625 53.542969 49.265625 53.542969 50.402344 C 53.542969 51.539062 53.542969 51.539062 53.1875 51.839844 C 52.742188 52.21875 51.910156 52.265625 51.714844 51.917969 C 51.65625 51.792969 51.601562 51.148438 51.601562 50.484375 L 51.601562 49.265625 L 51.03125 49.265625 Z M 51.03125 50.597656 "/>
<path style=" stroke:none;fill-rule:nonzero;fill:rgb(0%,0%,0%);fill-opacity:1;" d="M 55.253906 50.933594 L 55.253906 52.597656 L 55.824219 52.597656 L 55.824219 51.449219 C 55.824219 50.371094 55.847656 50.265625 56.109375 50.011719 C 56.292969 49.816406 56.507812 49.726562 56.792969 49.726562 C 57.113281 49.726562 57.195312 49.679688 57.195312 49.496094 C 57.195312 49.175781 56.417969 49.175781 56.074219 49.496094 L 55.824219 49.738281 L 55.824219 49.496094 C 55.824219 49.324219 55.746094 49.265625 55.539062 49.265625 L 55.253906 49.265625 Z M 55.253906 50.933594 "/>
<path style=" stroke:none;fill-rule:nonzero;fill:rgb(0%,0%,0%);fill-opacity:1;" d="M 58.050781 50.953125 C 58.65625 52.367188 58.757812 52.6875 58.65625 52.929688 C 58.507812 53.34375 58.222656 53.628906 57.972656 53.628906 C 57.730469 53.628906 57.695312 53.917969 57.9375 54.019531 C 58.1875 54.113281 58.78125 53.859375 58.917969 53.609375 C 58.988281 53.46875 59.421875 52.449219 59.878906 51.324219 L 60.710938 49.265625 L 60.402344 49.265625 C 60.128906 49.265625 60.070312 49.371094 59.589844 50.574219 C 59.316406 51.300781 59.054688 51.875 59.019531 51.851562 C 58.976562 51.828125 58.722656 51.230469 58.449219 50.53125 C 57.992188 49.347656 57.9375 49.265625 57.640625 49.265625 L 57.332031 49.265625 Z M 58.050781 50.953125 "/>
<path style=" stroke:none;fill-rule:nonzero;fill:rgb(0%,0%,0%);fill-opacity:1;" d="M 26.828125 50.757812 C 26.828125 50.976562 26.90625 50.988281 29.511719 50.988281 C 32.113281 50.988281 32.191406 50.976562 32.191406 50.757812 C 32.191406 50.542969 32.113281 50.53125 29.511719 50.53125 C 26.90625 50.53125 26.828125 50.542969 26.828125 50.757812 Z M 26.828125 50.757812 "/>
<path style=" stroke:none;fill-rule:nonzero;fill:rgb(0%,0%,0%);fill-opacity:1;" d="M 66.785156 50.757812 C 66.785156 50.976562 66.863281 50.988281 69.464844 50.988281 C 72.070312 50.988281 72.148438 50.976562 72.148438 50.757812 C 72.148438 50.542969 72.070312 50.53125 69.464844 50.53125 C 66.863281 50.53125 66.785156 50.542969 66.785156 50.757812 Z M 66.785156 50.757812 "/>
</g>
</svg>
